<mxfile host="Electron" modified="2024-03-01T06:07:12.653Z" agent="Mozilla/5.0 (Windows NT 10.0; Win64; x64) AppleWebKit/537.36 (KHTML, like Gecko) draw.io/23.1.5 Chrome/120.0.6099.109 Electron/28.1.0 Safari/537.36" etag="FGDQyDkSdqRIjHBAK0Ii" version="23.1.5" type="device">
  <diagram name="Страница — 1" id="VFu7LpfkQne6E0G_gx2B">
    <mxGraphModel dx="1615" dy="982" grid="1" gridSize="10" guides="1" tooltips="1" connect="1" arrows="1" fold="1" page="1" pageScale="1" pageWidth="827" pageHeight="1169" math="0" shadow="0">
      <root>
        <mxCell id="0" />
        <mxCell id="1" parent="0" />
        <mxCell id="1vLvSGxopapzkzXCBn_X-2" value="Пользователь(Врач)" style="swimlane;whiteSpace=wrap;html=1;" parent="1" vertex="1">
          <mxGeometry x="80" y="120" width="360" height="560" as="geometry" />
        </mxCell>
        <mxCell id="1vLvSGxopapzkzXCBn_X-15" value="Запуск системы&lt;br&gt;&lt;br&gt;&lt;br&gt;&lt;div&gt;&lt;br&gt;&lt;/div&gt;" style="ellipse;html=1;shape=startState;fillColor=#000000;strokeColor=#ff0000;" parent="1vLvSGxopapzkzXCBn_X-2" vertex="1">
          <mxGeometry x="165" y="50" width="30" height="30" as="geometry" />
        </mxCell>
        <mxCell id="1vLvSGxopapzkzXCBn_X-26" style="edgeStyle=orthogonalEdgeStyle;rounded=0;orthogonalLoop=1;jettySize=auto;html=1;" parent="1vLvSGxopapzkzXCBn_X-2" source="1vLvSGxopapzkzXCBn_X-25" edge="1">
          <mxGeometry relative="1" as="geometry">
            <mxPoint x="180" y="240" as="targetPoint" />
          </mxGeometry>
        </mxCell>
        <mxCell id="1vLvSGxopapzkzXCBn_X-25" value="Заполнение форм регистрации" style="html=1;whiteSpace=wrap;" parent="1vLvSGxopapzkzXCBn_X-2" vertex="1">
          <mxGeometry x="125" y="160" width="110" height="50" as="geometry" />
        </mxCell>
        <mxCell id="1vLvSGxopapzkzXCBn_X-32" value="Нажатие на кнопку &quot;Сохранить&quot;" style="html=1;whiteSpace=wrap;" parent="1vLvSGxopapzkzXCBn_X-2" vertex="1">
          <mxGeometry x="125" y="240" width="110" height="50" as="geometry" />
        </mxCell>
        <mxCell id="1vLvSGxopapzkzXCBn_X-53" style="edgeStyle=orthogonalEdgeStyle;rounded=0;orthogonalLoop=1;jettySize=auto;html=1;entryX=0.5;entryY=0;entryDx=0;entryDy=0;" parent="1vLvSGxopapzkzXCBn_X-2" source="1vLvSGxopapzkzXCBn_X-49" target="1vLvSGxopapzkzXCBn_X-52" edge="1">
          <mxGeometry relative="1" as="geometry" />
        </mxCell>
        <mxCell id="1vLvSGxopapzkzXCBn_X-49" value="Закрытие окна с информацией о созданном пациенте" style="rounded=0;whiteSpace=wrap;html=1;" parent="1vLvSGxopapzkzXCBn_X-2" vertex="1">
          <mxGeometry x="120" y="410" width="120" height="60" as="geometry" />
        </mxCell>
        <mxCell id="1vLvSGxopapzkzXCBn_X-52" value="" style="ellipse;html=1;shape=endState;fillColor=#000000;strokeColor=#ff0000;" parent="1vLvSGxopapzkzXCBn_X-2" vertex="1">
          <mxGeometry x="165" y="505" width="30" height="30" as="geometry" />
        </mxCell>
        <mxCell id="1vLvSGxopapzkzXCBn_X-5" value="Система" style="swimlane;whiteSpace=wrap;html=1;" parent="1" vertex="1">
          <mxGeometry x="440" y="120" width="400" height="560" as="geometry" />
        </mxCell>
        <mxCell id="1vLvSGxopapzkzXCBn_X-22" value="Отображение страницы &quot;Регистрация пациента&quot; для пользователя" style="html=1;whiteSpace=wrap;" parent="1vLvSGxopapzkzXCBn_X-5" vertex="1">
          <mxGeometry x="82.5" y="40" width="195" height="50" as="geometry" />
        </mxCell>
        <mxCell id="1vLvSGxopapzkzXCBn_X-29" value="Проверка валидности данных" style="rhombus;whiteSpace=wrap;html=1;fontColor=#000000;fillColor=#ffffc0;strokeColor=#ff0000;" parent="1vLvSGxopapzkzXCBn_X-5" vertex="1">
          <mxGeometry x="100" y="134" width="160" height="50" as="geometry" />
        </mxCell>
        <mxCell id="1vLvSGxopapzkzXCBn_X-34" value="Отправка сообщения о невозможности сохранить данные" style="html=1;whiteSpace=wrap;" parent="1vLvSGxopapzkzXCBn_X-5" vertex="1">
          <mxGeometry x="200" y="200" width="190" height="40" as="geometry" />
        </mxCell>
        <mxCell id="1vLvSGxopapzkzXCBn_X-30" value="Данные не соответсвуют требованиями" style="edgeStyle=orthogonalEdgeStyle;html=1;align=left;verticalAlign=bottom;endArrow=open;endSize=8;strokeColor=#ff0000;rounded=0;exitX=1;exitY=0.5;exitDx=0;exitDy=0;entryX=0.5;entryY=0;entryDx=0;entryDy=0;" parent="1vLvSGxopapzkzXCBn_X-5" source="1vLvSGxopapzkzXCBn_X-29" target="1vLvSGxopapzkzXCBn_X-34" edge="1">
          <mxGeometry x="-1" y="73" relative="1" as="geometry">
            <mxPoint x="320" y="200" as="targetPoint" />
            <mxPoint x="260" y="170" as="sourcePoint" />
            <mxPoint x="-70" y="54" as="offset" />
          </mxGeometry>
        </mxCell>
        <mxCell id="1vLvSGxopapzkzXCBn_X-37" style="edgeStyle=orthogonalEdgeStyle;rounded=0;orthogonalLoop=1;jettySize=auto;html=1;" parent="1vLvSGxopapzkzXCBn_X-5" source="1vLvSGxopapzkzXCBn_X-36" edge="1">
          <mxGeometry relative="1" as="geometry">
            <mxPoint x="440" y="290" as="targetPoint" />
            <Array as="points">
              <mxPoint x="65" y="290" />
            </Array>
          </mxGeometry>
        </mxCell>
        <mxCell id="1vLvSGxopapzkzXCBn_X-36" value="Отправка запроса на сохранение данных" style="html=1;whiteSpace=wrap;" parent="1vLvSGxopapzkzXCBn_X-5" vertex="1">
          <mxGeometry x="10" y="220" width="110" height="50" as="geometry" />
        </mxCell>
        <mxCell id="1vLvSGxopapzkzXCBn_X-31" value="Проверка прошла успешно" style="edgeStyle=orthogonalEdgeStyle;html=1;align=left;verticalAlign=top;endArrow=open;endSize=8;strokeColor=#ff0000;rounded=0;exitX=0;exitY=0.5;exitDx=0;exitDy=0;" parent="1vLvSGxopapzkzXCBn_X-5" source="1vLvSGxopapzkzXCBn_X-29" edge="1">
          <mxGeometry x="-0.3187" y="-81" relative="1" as="geometry">
            <mxPoint x="70" y="220" as="targetPoint" />
            <Array as="points">
              <mxPoint x="100" y="160" />
              <mxPoint x="70" y="160" />
              <mxPoint x="70" y="220" />
            </Array>
            <mxPoint x="11" y="-40" as="offset" />
          </mxGeometry>
        </mxCell>
        <mxCell id="1vLvSGxopapzkzXCBn_X-43" style="edgeStyle=orthogonalEdgeStyle;rounded=0;orthogonalLoop=1;jettySize=auto;html=1;" parent="1vLvSGxopapzkzXCBn_X-5" source="1vLvSGxopapzkzXCBn_X-40" edge="1">
          <mxGeometry relative="1" as="geometry">
            <mxPoint x="65" y="410" as="targetPoint" />
          </mxGeometry>
        </mxCell>
        <mxCell id="1vLvSGxopapzkzXCBn_X-40" value="Подтверждение сохранения" style="html=1;whiteSpace=wrap;" parent="1vLvSGxopapzkzXCBn_X-5" vertex="1">
          <mxGeometry x="10" y="330" width="110" height="50" as="geometry" />
        </mxCell>
        <mxCell id="1vLvSGxopapzkzXCBn_X-41" value="Отправка сообщение об успешном сохранении данных" style="shape=note;whiteSpace=wrap;html=1;backgroundOutline=1;darkOpacity=0.05;" parent="1vLvSGxopapzkzXCBn_X-5" vertex="1">
          <mxGeometry x="160" y="330" width="230" height="50" as="geometry" />
        </mxCell>
        <mxCell id="1vLvSGxopapzkzXCBn_X-42" style="edgeStyle=orthogonalEdgeStyle;rounded=0;orthogonalLoop=1;jettySize=auto;html=1;entryX=0;entryY=0.5;entryDx=0;entryDy=0;entryPerimeter=0;dashed=1;endArrow=none;endFill=0;" parent="1vLvSGxopapzkzXCBn_X-5" source="1vLvSGxopapzkzXCBn_X-40" target="1vLvSGxopapzkzXCBn_X-41" edge="1">
          <mxGeometry relative="1" as="geometry" />
        </mxCell>
        <mxCell id="1vLvSGxopapzkzXCBn_X-48" style="edgeStyle=orthogonalEdgeStyle;rounded=0;orthogonalLoop=1;jettySize=auto;html=1;" parent="1vLvSGxopapzkzXCBn_X-5" source="1vLvSGxopapzkzXCBn_X-45" edge="1">
          <mxGeometry relative="1" as="geometry">
            <mxPoint x="-120" y="440" as="targetPoint" />
          </mxGeometry>
        </mxCell>
        <mxCell id="1vLvSGxopapzkzXCBn_X-45" value="Отображение Кода Медицинской карты пациента" style="rounded=0;whiteSpace=wrap;html=1;" parent="1vLvSGxopapzkzXCBn_X-5" vertex="1">
          <mxGeometry x="5" y="410" width="120" height="60" as="geometry" />
        </mxCell>
        <mxCell id="1vLvSGxopapzkzXCBn_X-6" value="Api" style="swimlane;whiteSpace=wrap;html=1;" parent="1" vertex="1">
          <mxGeometry x="840" y="120" width="200" height="560" as="geometry" />
        </mxCell>
        <mxCell id="1vLvSGxopapzkzXCBn_X-39" style="edgeStyle=orthogonalEdgeStyle;rounded=0;orthogonalLoop=1;jettySize=auto;html=1;" parent="1vLvSGxopapzkzXCBn_X-6" source="1vLvSGxopapzkzXCBn_X-38" edge="1">
          <mxGeometry relative="1" as="geometry">
            <mxPoint x="-340" y="330" as="targetPoint" />
          </mxGeometry>
        </mxCell>
        <mxCell id="1vLvSGxopapzkzXCBn_X-38" value="Сохранение данных" style="html=1;whiteSpace=wrap;" parent="1vLvSGxopapzkzXCBn_X-6" vertex="1">
          <mxGeometry x="40" y="270" width="110" height="50" as="geometry" />
        </mxCell>
        <mxCell id="1vLvSGxopapzkzXCBn_X-47" style="edgeStyle=orthogonalEdgeStyle;rounded=0;orthogonalLoop=1;jettySize=auto;html=1;entryX=0.5;entryY=0;entryDx=0;entryDy=0;endArrow=none;endFill=0;dashed=1;" parent="1vLvSGxopapzkzXCBn_X-6" source="1vLvSGxopapzkzXCBn_X-46" target="1vLvSGxopapzkzXCBn_X-38" edge="1">
          <mxGeometry relative="1" as="geometry" />
        </mxCell>
        <mxCell id="1vLvSGxopapzkzXCBn_X-46" value="Сохранение данных в таблицу Пациент, присвоение уникольного кода медицинской карты данного пациента" style="shape=note;whiteSpace=wrap;html=1;backgroundOutline=1;darkOpacity=0.05;" parent="1vLvSGxopapzkzXCBn_X-6" vertex="1">
          <mxGeometry x="30" y="40" width="130" height="170" as="geometry" />
        </mxCell>
        <mxCell id="1vLvSGxopapzkzXCBn_X-16" value="" style="edgeStyle=orthogonalEdgeStyle;html=1;verticalAlign=bottom;endArrow=open;endSize=8;strokeColor=#ff0000;rounded=0;entryX=0;entryY=0.5;entryDx=0;entryDy=0;" parent="1" source="1vLvSGxopapzkzXCBn_X-15" target="1vLvSGxopapzkzXCBn_X-22" edge="1">
          <mxGeometry relative="1" as="geometry">
            <mxPoint x="520" y="175" as="targetPoint" />
          </mxGeometry>
        </mxCell>
        <mxCell id="1vLvSGxopapzkzXCBn_X-33" style="edgeStyle=orthogonalEdgeStyle;rounded=0;orthogonalLoop=1;jettySize=auto;html=1;entryX=0.5;entryY=0;entryDx=0;entryDy=0;exitX=1;exitY=0.5;exitDx=0;exitDy=0;" parent="1" source="1vLvSGxopapzkzXCBn_X-32" target="1vLvSGxopapzkzXCBn_X-29" edge="1">
          <mxGeometry relative="1" as="geometry">
            <Array as="points">
              <mxPoint x="400" y="385" />
              <mxPoint x="400" y="240" />
              <mxPoint x="620" y="240" />
            </Array>
          </mxGeometry>
        </mxCell>
        <mxCell id="1vLvSGxopapzkzXCBn_X-24" style="edgeStyle=orthogonalEdgeStyle;rounded=0;orthogonalLoop=1;jettySize=auto;html=1;exitX=0.5;exitY=1;exitDx=0;exitDy=0;entryX=0.5;entryY=0;entryDx=0;entryDy=0;" parent="1" source="1vLvSGxopapzkzXCBn_X-22" target="1vLvSGxopapzkzXCBn_X-25" edge="1">
          <mxGeometry relative="1" as="geometry">
            <mxPoint x="260" y="240" as="targetPoint" />
            <Array as="points">
              <mxPoint x="620" y="230" />
              <mxPoint x="260" y="230" />
            </Array>
          </mxGeometry>
        </mxCell>
        <mxCell id="1vLvSGxopapzkzXCBn_X-35" style="edgeStyle=orthogonalEdgeStyle;rounded=0;orthogonalLoop=1;jettySize=auto;html=1;entryX=1;entryY=0.5;entryDx=0;entryDy=0;" parent="1" source="1vLvSGxopapzkzXCBn_X-34" target="1vLvSGxopapzkzXCBn_X-25" edge="1">
          <mxGeometry relative="1" as="geometry">
            <Array as="points">
              <mxPoint x="735" y="380" />
              <mxPoint x="600" y="380" />
              <mxPoint x="600" y="305" />
            </Array>
          </mxGeometry>
        </mxCell>
        <mxCell id="1vLvSGxopapzkzXCBn_X-54" value="Регистрация пациента" style="shape=umlFrame;whiteSpace=wrap;html=1;pointerEvents=0;width=150;height=30;" parent="1" vertex="1">
          <mxGeometry x="40" y="80" width="1040" height="640" as="geometry" />
        </mxCell>
        <mxCell id="1vLvSGxopapzkzXCBn_X-55" value="Заполнение Медицинской карты Пациента" style="shape=umlFrame;whiteSpace=wrap;html=1;pointerEvents=0;width=260;height=30;" parent="1" vertex="1">
          <mxGeometry x="1245" y="630" width="1040" height="720" as="geometry" />
        </mxCell>
        <mxCell id="1vLvSGxopapzkzXCBn_X-56" value="Пользовател(Врач)" style="swimlane;whiteSpace=wrap;html=1;" parent="1" vertex="1">
          <mxGeometry x="1285" y="110" width="320" height="440" as="geometry" />
        </mxCell>
        <mxCell id="1vLvSGxopapzkzXCBn_X-58" value="Запуск Приложения&lt;br&gt;&lt;br&gt;&lt;br&gt;&lt;div&gt;&lt;br&gt;&lt;/div&gt;" style="ellipse;html=1;shape=startState;fillColor=#000000;strokeColor=#ff0000;" parent="1vLvSGxopapzkzXCBn_X-56" vertex="1">
          <mxGeometry x="145" y="50" width="30" height="30" as="geometry" />
        </mxCell>
        <mxCell id="1vLvSGxopapzkzXCBn_X-61" value="Заполнение форм данными" style="html=1;whiteSpace=wrap;" parent="1vLvSGxopapzkzXCBn_X-56" vertex="1">
          <mxGeometry x="105" y="120" width="110" height="50" as="geometry" />
        </mxCell>
        <mxCell id="1vLvSGxopapzkzXCBn_X-79" style="edgeStyle=orthogonalEdgeStyle;rounded=0;orthogonalLoop=1;jettySize=auto;html=1;entryX=0.5;entryY=0;entryDx=0;entryDy=0;" parent="1vLvSGxopapzkzXCBn_X-56" source="1vLvSGxopapzkzXCBn_X-74" target="1vLvSGxopapzkzXCBn_X-76" edge="1">
          <mxGeometry relative="1" as="geometry" />
        </mxCell>
        <mxCell id="1vLvSGxopapzkzXCBn_X-74" value="Выбрать действие" style="html=1;whiteSpace=wrap;" parent="1vLvSGxopapzkzXCBn_X-56" vertex="1">
          <mxGeometry x="105" y="227" width="110" height="52" as="geometry" />
        </mxCell>
        <mxCell id="1vLvSGxopapzkzXCBn_X-76" value="" style="rhombus;whiteSpace=wrap;html=1;fontColor=#000000;fillColor=#ffffc0;strokeColor=#ff0000;" parent="1vLvSGxopapzkzXCBn_X-56" vertex="1">
          <mxGeometry x="120" y="307" width="80" height="40" as="geometry" />
        </mxCell>
        <mxCell id="1vLvSGxopapzkzXCBn_X-77" value="Выбран отказ от ввода" style="edgeStyle=orthogonalEdgeStyle;html=1;align=left;verticalAlign=bottom;endArrow=open;endSize=8;strokeColor=#ff0000;rounded=0;" parent="1vLvSGxopapzkzXCBn_X-56" source="1vLvSGxopapzkzXCBn_X-76" edge="1">
          <mxGeometry x="-1" relative="1" as="geometry">
            <mxPoint x="400" y="327" as="targetPoint" />
          </mxGeometry>
        </mxCell>
        <mxCell id="1vLvSGxopapzkzXCBn_X-57" value="Система обработки запросов" style="swimlane;whiteSpace=wrap;html=1;" parent="1" vertex="1">
          <mxGeometry x="1605" y="110" width="480" height="440" as="geometry" />
        </mxCell>
        <mxCell id="1vLvSGxopapzkzXCBn_X-60" value="Запросить Логин и Пароль" style="html=1;whiteSpace=wrap;" parent="1vLvSGxopapzkzXCBn_X-57" vertex="1">
          <mxGeometry x="120" y="56" width="110" height="50" as="geometry" />
        </mxCell>
        <mxCell id="1vLvSGxopapzkzXCBn_X-63" value="Проверка валидности данных" style="rhombus;whiteSpace=wrap;html=1;fontColor=#000000;fillColor=#ffffc0;strokeColor=#ff0000;" parent="1vLvSGxopapzkzXCBn_X-57" vertex="1">
          <mxGeometry x="160" y="152" width="160" height="50" as="geometry" />
        </mxCell>
        <mxCell id="1vLvSGxopapzkzXCBn_X-64" value="Отправка сообщения о невозможности сохранить данные" style="html=1;whiteSpace=wrap;" parent="1vLvSGxopapzkzXCBn_X-57" vertex="1">
          <mxGeometry x="20" y="227" width="190" height="52" as="geometry" />
        </mxCell>
        <mxCell id="1vLvSGxopapzkzXCBn_X-65" value="Данные не соответсвуют требованиями" style="edgeStyle=orthogonalEdgeStyle;html=1;align=left;verticalAlign=bottom;endArrow=open;endSize=8;strokeColor=#ff0000;rounded=0;exitX=0;exitY=0.5;exitDx=0;exitDy=0;entryX=0.5;entryY=0;entryDx=0;entryDy=0;" parent="1vLvSGxopapzkzXCBn_X-57" source="1vLvSGxopapzkzXCBn_X-63" target="1vLvSGxopapzkzXCBn_X-64" edge="1">
          <mxGeometry x="-0.0525" y="-106" relative="1" as="geometry">
            <mxPoint x="330" y="218" as="targetPoint" />
            <mxPoint x="270" y="188" as="sourcePoint" />
            <mxPoint x="1" y="-17" as="offset" />
            <Array as="points">
              <mxPoint x="115" y="177" />
            </Array>
          </mxGeometry>
        </mxCell>
        <mxCell id="1vLvSGxopapzkzXCBn_X-70" value="" style="edgeStyle=orthogonalEdgeStyle;rounded=0;orthogonalLoop=1;jettySize=auto;html=1;" parent="1vLvSGxopapzkzXCBn_X-57" source="1vLvSGxopapzkzXCBn_X-66" target="1vLvSGxopapzkzXCBn_X-69" edge="1">
          <mxGeometry relative="1" as="geometry" />
        </mxCell>
        <mxCell id="1vLvSGxopapzkzXCBn_X-66" value="Отправка запроса на сохранение данных" style="html=1;whiteSpace=wrap;" parent="1vLvSGxopapzkzXCBn_X-57" vertex="1">
          <mxGeometry x="310" y="227" width="110" height="50" as="geometry" />
        </mxCell>
        <mxCell id="1vLvSGxopapzkzXCBn_X-67" value="Проверка прошла успешно" style="edgeStyle=orthogonalEdgeStyle;html=1;align=left;verticalAlign=top;endArrow=open;endSize=8;strokeColor=#ff0000;rounded=0;exitX=1;exitY=0.5;exitDx=0;exitDy=0;entryX=0.5;entryY=0;entryDx=0;entryDy=0;" parent="1vLvSGxopapzkzXCBn_X-57" source="1vLvSGxopapzkzXCBn_X-63" target="1vLvSGxopapzkzXCBn_X-66" edge="1">
          <mxGeometry x="-1" y="-62" relative="1" as="geometry">
            <mxPoint x="80" y="238" as="targetPoint" />
            <Array as="points">
              <mxPoint x="320" y="178" />
              <mxPoint x="365" y="178" />
            </Array>
            <mxPoint x="12" y="-37" as="offset" />
          </mxGeometry>
        </mxCell>
        <mxCell id="1vLvSGxopapzkzXCBn_X-72" style="edgeStyle=orthogonalEdgeStyle;rounded=0;orthogonalLoop=1;jettySize=auto;html=1;entryX=0.5;entryY=0;entryDx=0;entryDy=0;" parent="1vLvSGxopapzkzXCBn_X-57" source="1vLvSGxopapzkzXCBn_X-71" edge="1">
          <mxGeometry relative="1" as="geometry">
            <mxPoint x="365" y="407" as="targetPoint" />
          </mxGeometry>
        </mxCell>
        <mxCell id="1vLvSGxopapzkzXCBn_X-69" value="Вывод в главное окно с учетом прав доступа" style="html=1;whiteSpace=wrap;" parent="1vLvSGxopapzkzXCBn_X-57" vertex="1">
          <mxGeometry x="310" y="307" width="110" height="50" as="geometry" />
        </mxCell>
        <mxCell id="1vLvSGxopapzkzXCBn_X-80" value="&lt;br&gt;&lt;br&gt;&lt;br&gt;&lt;br&gt;Пользователь не авторизирован" style="ellipse;html=1;shape=endState;fillColor=#000000;strokeColor=#ff0000;" parent="1vLvSGxopapzkzXCBn_X-57" vertex="1">
          <mxGeometry x="80" y="313" width="30" height="30" as="geometry" />
        </mxCell>
        <mxCell id="1vLvSGxopapzkzXCBn_X-81" value="" style="edgeStyle=orthogonalEdgeStyle;rounded=0;orthogonalLoop=1;jettySize=auto;html=1;entryX=0.5;entryY=0;entryDx=0;entryDy=0;" parent="1vLvSGxopapzkzXCBn_X-57" source="1vLvSGxopapzkzXCBn_X-69" target="1vLvSGxopapzkzXCBn_X-71" edge="1">
          <mxGeometry relative="1" as="geometry">
            <mxPoint x="925" y="1117" as="sourcePoint" />
            <mxPoint x="925" y="1167" as="targetPoint" />
          </mxGeometry>
        </mxCell>
        <mxCell id="1vLvSGxopapzkzXCBn_X-71" value="&lt;br&gt;&lt;br&gt;&lt;br&gt;&lt;br&gt;Успешная авторизация" style="ellipse;html=1;shape=endState;fillColor=#000000;strokeColor=#ff0000;" parent="1vLvSGxopapzkzXCBn_X-57" vertex="1">
          <mxGeometry x="350" y="379" width="30" height="30" as="geometry" />
        </mxCell>
        <mxCell id="1vLvSGxopapzkzXCBn_X-62" style="edgeStyle=orthogonalEdgeStyle;rounded=0;orthogonalLoop=1;jettySize=auto;html=1;entryX=0.5;entryY=0;entryDx=0;entryDy=0;exitX=0;exitY=0.843;exitDx=0;exitDy=0;exitPerimeter=0;" parent="1" source="1vLvSGxopapzkzXCBn_X-60" target="1vLvSGxopapzkzXCBn_X-61" edge="1">
          <mxGeometry relative="1" as="geometry">
            <mxPoint x="1715" y="208" as="sourcePoint" />
            <mxPoint x="1370" y="242.5" as="targetPoint" />
          </mxGeometry>
        </mxCell>
        <mxCell id="1vLvSGxopapzkzXCBn_X-68" style="edgeStyle=orthogonalEdgeStyle;rounded=0;orthogonalLoop=1;jettySize=auto;html=1;entryX=0.5;entryY=0;entryDx=0;entryDy=0;" parent="1" source="1vLvSGxopapzkzXCBn_X-61" target="1vLvSGxopapzkzXCBn_X-63" edge="1">
          <mxGeometry relative="1" as="geometry">
            <Array as="points">
              <mxPoint x="1845" y="242" />
            </Array>
          </mxGeometry>
        </mxCell>
        <mxCell id="1vLvSGxopapzkzXCBn_X-75" value="" style="edgeStyle=orthogonalEdgeStyle;rounded=0;orthogonalLoop=1;jettySize=auto;html=1;" parent="1" source="1vLvSGxopapzkzXCBn_X-64" target="1vLvSGxopapzkzXCBn_X-74" edge="1">
          <mxGeometry relative="1" as="geometry" />
        </mxCell>
        <mxCell id="1vLvSGxopapzkzXCBn_X-59" value="" style="edgeStyle=orthogonalEdgeStyle;html=1;verticalAlign=bottom;endArrow=open;endSize=8;strokeColor=#ff0000;rounded=0;entryX=-0.004;entryY=0.181;entryDx=0;entryDy=0;entryPerimeter=0;" parent="1" source="1vLvSGxopapzkzXCBn_X-58" target="1vLvSGxopapzkzXCBn_X-60" edge="1">
          <mxGeometry relative="1" as="geometry">
            <mxPoint x="1885" y="175" as="targetPoint" />
          </mxGeometry>
        </mxCell>
        <mxCell id="1vLvSGxopapzkzXCBn_X-78" value="Иначе" style="edgeStyle=orthogonalEdgeStyle;html=1;align=left;verticalAlign=top;endArrow=open;endSize=8;strokeColor=#ff0000;rounded=0;entryX=0.5;entryY=1;entryDx=0;entryDy=0;" parent="1" source="1vLvSGxopapzkzXCBn_X-76" target="1vLvSGxopapzkzXCBn_X-60" edge="1">
          <mxGeometry x="-0.8015" y="-10" relative="1" as="geometry">
            <mxPoint x="1445" y="517" as="targetPoint" />
            <Array as="points">
              <mxPoint x="1355" y="437" />
              <mxPoint x="1355" y="220" />
              <mxPoint x="1800" y="220" />
              <mxPoint x="1800" y="216" />
            </Array>
            <mxPoint as="offset" />
          </mxGeometry>
        </mxCell>
        <mxCell id="1vLvSGxopapzkzXCBn_X-82" value="Авторизация пользователя в системе" style="shape=umlFrame;whiteSpace=wrap;html=1;pointerEvents=0;width=230;height=20;" parent="1" vertex="1">
          <mxGeometry x="1245" y="70" width="880" height="520" as="geometry" />
        </mxCell>
        <mxCell id="1vLvSGxopapzkzXCBn_X-89" value="Пользователь(Врач)" style="swimlane;whiteSpace=wrap;html=1;" parent="1" vertex="1">
          <mxGeometry x="1285" y="670" width="360" height="640" as="geometry" />
        </mxCell>
        <mxCell id="1vLvSGxopapzkzXCBn_X-93" value="Запуск системы&lt;br&gt;&lt;br&gt;&lt;br&gt;&lt;div&gt;&lt;br&gt;&lt;/div&gt;" style="ellipse;html=1;shape=startState;fillColor=#000000;strokeColor=#ff0000;" parent="1vLvSGxopapzkzXCBn_X-89" vertex="1">
          <mxGeometry x="150" y="50" width="30" height="30" as="geometry" />
        </mxCell>
        <mxCell id="1vLvSGxopapzkzXCBn_X-98" value="Нажатие кнопки &quot;Мед.Карта&quot;" style="html=1;whiteSpace=wrap;" parent="1vLvSGxopapzkzXCBn_X-89" vertex="1">
          <mxGeometry x="97.5" y="110" width="135" height="50" as="geometry" />
        </mxCell>
        <mxCell id="1vLvSGxopapzkzXCBn_X-104" value="Ввод информации о приеме в соответсвующие формы" style="rounded=0;whiteSpace=wrap;html=1;" parent="1vLvSGxopapzkzXCBn_X-89" vertex="1">
          <mxGeometry x="214" y="240" width="120" height="60" as="geometry" />
        </mxCell>
        <mxCell id="1vLvSGxopapzkzXCBn_X-106" style="edgeStyle=orthogonalEdgeStyle;rounded=0;orthogonalLoop=1;jettySize=auto;html=1;entryX=0;entryY=0.5;entryDx=0;entryDy=0;endArrow=none;endFill=0;dashed=1;" parent="1vLvSGxopapzkzXCBn_X-89" source="1vLvSGxopapzkzXCBn_X-105" target="1vLvSGxopapzkzXCBn_X-104" edge="1">
          <mxGeometry relative="1" as="geometry" />
        </mxCell>
        <mxCell id="1vLvSGxopapzkzXCBn_X-105" value="Сбор анамнеза, указание диагноза, выписка рецепта, установка исследования/результатов исследования и т.д." style="shape=note;whiteSpace=wrap;html=1;backgroundOutline=1;darkOpacity=0.05;" parent="1vLvSGxopapzkzXCBn_X-89" vertex="1">
          <mxGeometry x="18" y="220" width="152" height="160" as="geometry" />
        </mxCell>
        <mxCell id="1vLvSGxopapzkzXCBn_X-131" value="Закрытие окна &quot;Медицинская карта&quot;" style="rounded=0;whiteSpace=wrap;html=1;" parent="1vLvSGxopapzkzXCBn_X-89" vertex="1">
          <mxGeometry x="100" y="490" width="132.5" height="60" as="geometry" />
        </mxCell>
        <mxCell id="1vLvSGxopapzkzXCBn_X-132" value="&lt;br&gt;&lt;br&gt;&lt;br&gt;&lt;br&gt;Завершение сеанса" style="ellipse;html=1;shape=endState;fillColor=#000000;strokeColor=#ff0000;" parent="1vLvSGxopapzkzXCBn_X-89" vertex="1">
          <mxGeometry x="151.25" y="585" width="30" height="30" as="geometry" />
        </mxCell>
        <mxCell id="1vLvSGxopapzkzXCBn_X-130" style="edgeStyle=orthogonalEdgeStyle;rounded=0;orthogonalLoop=1;jettySize=auto;html=1;entryX=0.5;entryY=0;entryDx=0;entryDy=0;" parent="1vLvSGxopapzkzXCBn_X-89" source="1vLvSGxopapzkzXCBn_X-131" target="1vLvSGxopapzkzXCBn_X-132" edge="1">
          <mxGeometry relative="1" as="geometry" />
        </mxCell>
        <mxCell id="1vLvSGxopapzkzXCBn_X-90" value="Система" style="swimlane;whiteSpace=wrap;html=1;" parent="1" vertex="1">
          <mxGeometry x="1645" y="670" width="400" height="640" as="geometry" />
        </mxCell>
        <mxCell id="1vLvSGxopapzkzXCBn_X-94" value="Отображение интерфейса настольного клиента" style="html=1;whiteSpace=wrap;" parent="1vLvSGxopapzkzXCBn_X-90" vertex="1">
          <mxGeometry x="40" y="40" width="135" height="50" as="geometry" />
        </mxCell>
        <mxCell id="1vLvSGxopapzkzXCBn_X-95" value="Отображение окна с информацией о пациенте" style="shape=note;whiteSpace=wrap;html=1;backgroundOutline=1;darkOpacity=0.05;" parent="1vLvSGxopapzkzXCBn_X-90" vertex="1">
          <mxGeometry x="200" y="40" width="190" height="50" as="geometry" />
        </mxCell>
        <mxCell id="1vLvSGxopapzkzXCBn_X-96" style="edgeStyle=orthogonalEdgeStyle;rounded=0;orthogonalLoop=1;jettySize=auto;html=1;entryX=0;entryY=0.5;entryDx=0;entryDy=0;entryPerimeter=0;dashed=1;endArrow=none;endFill=0;" parent="1vLvSGxopapzkzXCBn_X-90" source="1vLvSGxopapzkzXCBn_X-94" target="1vLvSGxopapzkzXCBn_X-95" edge="1">
          <mxGeometry relative="1" as="geometry" />
        </mxCell>
        <mxCell id="1vLvSGxopapzkzXCBn_X-101" value="Отображение интерфейса окна &quot;Медицинская карта&quot;" style="html=1;whiteSpace=wrap;" parent="1vLvSGxopapzkzXCBn_X-90" vertex="1">
          <mxGeometry x="40" y="170" width="135" height="50" as="geometry" />
        </mxCell>
        <mxCell id="1vLvSGxopapzkzXCBn_X-114" value="Проверка валидности данных" style="rhombus;whiteSpace=wrap;html=1;fontColor=#000000;fillColor=#ffffc0;strokeColor=#ff0000;" parent="1vLvSGxopapzkzXCBn_X-90" vertex="1">
          <mxGeometry x="95" y="300" width="160" height="50" as="geometry" />
        </mxCell>
        <mxCell id="1vLvSGxopapzkzXCBn_X-115" value="Отправка сообщения о невозможности сохранить данные" style="html=1;whiteSpace=wrap;" parent="1vLvSGxopapzkzXCBn_X-90" vertex="1">
          <mxGeometry x="195" y="366" width="190" height="40" as="geometry" />
        </mxCell>
        <mxCell id="1vLvSGxopapzkzXCBn_X-116" value="Данные не соответсвуют требованиями" style="edgeStyle=orthogonalEdgeStyle;html=1;align=left;verticalAlign=bottom;endArrow=open;endSize=8;strokeColor=#ff0000;rounded=0;exitX=1;exitY=0.5;exitDx=0;exitDy=0;entryX=0.5;entryY=0;entryDx=0;entryDy=0;" parent="1vLvSGxopapzkzXCBn_X-90" source="1vLvSGxopapzkzXCBn_X-114" target="1vLvSGxopapzkzXCBn_X-115" edge="1">
          <mxGeometry x="-1" y="73" relative="1" as="geometry">
            <mxPoint x="315" y="366" as="targetPoint" />
            <mxPoint x="255" y="336" as="sourcePoint" />
            <mxPoint x="-70" y="54" as="offset" />
          </mxGeometry>
        </mxCell>
        <mxCell id="1vLvSGxopapzkzXCBn_X-117" style="edgeStyle=orthogonalEdgeStyle;rounded=0;orthogonalLoop=1;jettySize=auto;html=1;" parent="1vLvSGxopapzkzXCBn_X-90" source="1vLvSGxopapzkzXCBn_X-118" edge="1">
          <mxGeometry relative="1" as="geometry">
            <mxPoint x="435" y="456" as="targetPoint" />
            <Array as="points">
              <mxPoint x="60" y="456" />
            </Array>
          </mxGeometry>
        </mxCell>
        <mxCell id="1vLvSGxopapzkzXCBn_X-118" value="Отправка запроса на сохранение данных" style="html=1;whiteSpace=wrap;" parent="1vLvSGxopapzkzXCBn_X-90" vertex="1">
          <mxGeometry x="5" y="386" width="110" height="50" as="geometry" />
        </mxCell>
        <mxCell id="1vLvSGxopapzkzXCBn_X-119" value="Проверка прошла успешно" style="edgeStyle=orthogonalEdgeStyle;html=1;align=left;verticalAlign=top;endArrow=open;endSize=8;strokeColor=#ff0000;rounded=0;exitX=0;exitY=0.5;exitDx=0;exitDy=0;" parent="1vLvSGxopapzkzXCBn_X-90" source="1vLvSGxopapzkzXCBn_X-114" edge="1">
          <mxGeometry x="-0.3187" y="-81" relative="1" as="geometry">
            <mxPoint x="65" y="386" as="targetPoint" />
            <Array as="points">
              <mxPoint x="95" y="326" />
              <mxPoint x="65" y="326" />
              <mxPoint x="65" y="386" />
            </Array>
            <mxPoint x="11" y="-40" as="offset" />
          </mxGeometry>
        </mxCell>
        <mxCell id="1vLvSGxopapzkzXCBn_X-121" value="Подтверждение сохранения" style="html=1;whiteSpace=wrap;" parent="1vLvSGxopapzkzXCBn_X-90" vertex="1">
          <mxGeometry x="5" y="496" width="110" height="50" as="geometry" />
        </mxCell>
        <mxCell id="1vLvSGxopapzkzXCBn_X-122" value="Отправка сообщение об успешном сохранении данных" style="shape=note;whiteSpace=wrap;html=1;backgroundOutline=1;darkOpacity=0.05;" parent="1vLvSGxopapzkzXCBn_X-90" vertex="1">
          <mxGeometry x="155" y="496" width="230" height="50" as="geometry" />
        </mxCell>
        <mxCell id="1vLvSGxopapzkzXCBn_X-123" style="edgeStyle=orthogonalEdgeStyle;rounded=0;orthogonalLoop=1;jettySize=auto;html=1;entryX=0;entryY=0.5;entryDx=0;entryDy=0;entryPerimeter=0;dashed=1;endArrow=none;endFill=0;" parent="1vLvSGxopapzkzXCBn_X-90" source="1vLvSGxopapzkzXCBn_X-121" target="1vLvSGxopapzkzXCBn_X-122" edge="1">
          <mxGeometry relative="1" as="geometry" />
        </mxCell>
        <mxCell id="1vLvSGxopapzkzXCBn_X-125" style="edgeStyle=orthogonalEdgeStyle;rounded=0;orthogonalLoop=1;jettySize=auto;html=1;" parent="1vLvSGxopapzkzXCBn_X-90" source="1vLvSGxopapzkzXCBn_X-126" edge="1">
          <mxGeometry relative="1" as="geometry">
            <mxPoint x="55" y="496" as="targetPoint" />
          </mxGeometry>
        </mxCell>
        <mxCell id="1vLvSGxopapzkzXCBn_X-91" value="Api" style="swimlane;whiteSpace=wrap;html=1;" parent="1" vertex="1">
          <mxGeometry x="2045" y="670" width="200" height="640" as="geometry" />
        </mxCell>
        <mxCell id="1vLvSGxopapzkzXCBn_X-126" value="Сохранение данных" style="html=1;whiteSpace=wrap;" parent="1vLvSGxopapzkzXCBn_X-91" vertex="1">
          <mxGeometry x="30" y="436" width="110" height="50" as="geometry" />
        </mxCell>
        <mxCell id="1vLvSGxopapzkzXCBn_X-128" value="Сохранение данных в медицинскую карту пациента" style="shape=note;whiteSpace=wrap;html=1;backgroundOutline=1;darkOpacity=0.05;" parent="1vLvSGxopapzkzXCBn_X-91" vertex="1">
          <mxGeometry x="20" y="185" width="130" height="170" as="geometry" />
        </mxCell>
        <mxCell id="1vLvSGxopapzkzXCBn_X-127" style="edgeStyle=orthogonalEdgeStyle;rounded=0;orthogonalLoop=1;jettySize=auto;html=1;entryX=0.5;entryY=0;entryDx=0;entryDy=0;endArrow=none;endFill=0;dashed=1;exitX=0.5;exitY=1;exitDx=0;exitDy=0;exitPerimeter=0;" parent="1vLvSGxopapzkzXCBn_X-91" source="1vLvSGxopapzkzXCBn_X-128" target="1vLvSGxopapzkzXCBn_X-126" edge="1">
          <mxGeometry relative="1" as="geometry">
            <mxPoint x="90" y="376" as="sourcePoint" />
          </mxGeometry>
        </mxCell>
        <mxCell id="1vLvSGxopapzkzXCBn_X-92" value="" style="edgeStyle=orthogonalEdgeStyle;rounded=0;orthogonalLoop=1;jettySize=auto;html=1;entryX=0;entryY=0.5;entryDx=0;entryDy=0;" parent="1" source="1vLvSGxopapzkzXCBn_X-93" target="1vLvSGxopapzkzXCBn_X-94" edge="1">
          <mxGeometry relative="1" as="geometry">
            <mxPoint x="1515" y="735" as="targetPoint" />
          </mxGeometry>
        </mxCell>
        <mxCell id="1vLvSGxopapzkzXCBn_X-99" value="" style="edgeStyle=orthogonalEdgeStyle;rounded=0;orthogonalLoop=1;jettySize=auto;html=1;" parent="1" source="1vLvSGxopapzkzXCBn_X-94" target="1vLvSGxopapzkzXCBn_X-98" edge="1">
          <mxGeometry relative="1" as="geometry">
            <Array as="points">
              <mxPoint x="1745" y="805" />
            </Array>
          </mxGeometry>
        </mxCell>
        <mxCell id="1vLvSGxopapzkzXCBn_X-102" value="" style="edgeStyle=orthogonalEdgeStyle;rounded=0;orthogonalLoop=1;jettySize=auto;html=1;" parent="1" source="1vLvSGxopapzkzXCBn_X-98" target="1vLvSGxopapzkzXCBn_X-101" edge="1">
          <mxGeometry relative="1" as="geometry">
            <Array as="points">
              <mxPoint x="1450" y="860" />
            </Array>
          </mxGeometry>
        </mxCell>
        <mxCell id="1vLvSGxopapzkzXCBn_X-103" style="edgeStyle=orthogonalEdgeStyle;rounded=0;orthogonalLoop=1;jettySize=auto;html=1;entryX=0.5;entryY=0;entryDx=0;entryDy=0;" parent="1" source="1vLvSGxopapzkzXCBn_X-101" target="1vLvSGxopapzkzXCBn_X-104" edge="1">
          <mxGeometry relative="1" as="geometry">
            <mxPoint x="1445" y="910" as="targetPoint" />
          </mxGeometry>
        </mxCell>
        <mxCell id="1vLvSGxopapzkzXCBn_X-108" value="" style="edgeStyle=orthogonalEdgeStyle;rounded=0;orthogonalLoop=1;jettySize=auto;html=1;entryX=0.5;entryY=0;entryDx=0;entryDy=0;" parent="1" source="1vLvSGxopapzkzXCBn_X-104" target="1vLvSGxopapzkzXCBn_X-114" edge="1">
          <mxGeometry relative="1" as="geometry">
            <mxPoint x="1699" y="940" as="targetPoint" />
          </mxGeometry>
        </mxCell>
        <mxCell id="1vLvSGxopapzkzXCBn_X-129" style="edgeStyle=orthogonalEdgeStyle;rounded=0;orthogonalLoop=1;jettySize=auto;html=1;entryX=0.5;entryY=1;entryDx=0;entryDy=0;exitX=0;exitY=0.5;exitDx=0;exitDy=0;" parent="1" source="1vLvSGxopapzkzXCBn_X-115" target="1vLvSGxopapzkzXCBn_X-104" edge="1">
          <mxGeometry relative="1" as="geometry">
            <Array as="points">
              <mxPoint x="1795" y="1056" />
              <mxPoint x="1795" y="1030" />
              <mxPoint x="1559" y="1030" />
            </Array>
          </mxGeometry>
        </mxCell>
        <mxCell id="1vLvSGxopapzkzXCBn_X-120" style="edgeStyle=orthogonalEdgeStyle;rounded=0;orthogonalLoop=1;jettySize=auto;html=1;entryX=1;entryY=0.5;entryDx=0;entryDy=0;" parent="1" source="1vLvSGxopapzkzXCBn_X-121" target="1vLvSGxopapzkzXCBn_X-131" edge="1">
          <mxGeometry relative="1" as="geometry">
            <mxPoint x="1705" y="1246" as="targetPoint" />
          </mxGeometry>
        </mxCell>
        <mxCell id="1vLvSGxopapzkzXCBn_X-134" value="Прием пациента" style="shape=umlFrame;whiteSpace=wrap;html=1;pointerEvents=0;width=150;height=30;" parent="1" vertex="1">
          <mxGeometry y="40" width="1120" height="720" as="geometry" />
        </mxCell>
        <mxCell id="1vLvSGxopapzkzXCBn_X-135" value="Наблюдение за пациентом" style="shape=umlFrame;whiteSpace=wrap;html=1;pointerEvents=0;width=164;height=30;" parent="1" vertex="1">
          <mxGeometry x="1200" y="30" width="1124" height="1360" as="geometry" />
        </mxCell>
        <mxCell id="1vLvSGxopapzkzXCBn_X-136" value="Оформление документов" style="shape=umlFrame;whiteSpace=wrap;html=1;pointerEvents=0;width=180;height=30;" parent="1" vertex="1">
          <mxGeometry y="800" width="1120" height="1520" as="geometry" />
        </mxCell>
        <mxCell id="9fMQ39LgBv4s3cg6nBR2-1" value="Формирование рецептов и др доков" style="text;html=1;align=center;verticalAlign=middle;whiteSpace=wrap;rounded=0;" vertex="1" parent="1">
          <mxGeometry x="1480" y="1480" width="60" height="30" as="geometry" />
        </mxCell>
      </root>
    </mxGraphModel>
  </diagram>
</mxfile>
